<svg width="136" height="30" viewBox="0 0 136 30" fill="none" xmlns="http://www.w3.org/2000/svg">
<path d="M24.9243 4.03844C25.0597 3.73301 25.0597 3.73301 25.8047 1.93438C24.01 1.73076 23.0278 1.56108 21.4701 1.59501C19.4382 0.57692 17.1693 0 14.765 0C6.60358 0 0 6.61761 0 14.7963C0 22.975 6.60358 29.5926 14.765 29.5926C22.9263 29.5926 29.5298 22.975 29.5298 14.7963C29.5298 10.5543 27.735 6.75335 24.9243 4.03844Z" fill="white"/>
<path d="M23.8396 6.1078C23.8057 6.07387 23.7719 6.07387 23.738 6.07387C23.7041 6.07387 23.6703 6.1078 23.6364 6.1078C23.0269 6.82047 22.3157 7.46526 21.5368 7.97431C19.9791 8.95846 18.2181 9.50148 16.3556 9.50148C12.9014 9.50148 10.9372 7.80462 9.3456 6.58291C9.31174 6.54897 9.27788 6.51504 9.27788 6.4811C9.27788 6.44716 9.31174 6.41323 9.3456 6.37929C11.8177 4.47885 13.8496 3.25714 15.9153 2.54447C15.983 2.51054 16.0169 2.4766 16.0169 2.40873C16.0169 2.34085 15.9492 2.30692 15.8814 2.27298C15.509 2.23904 15.1364 2.23904 14.7639 2.23904C7.8217 2.20511 2.2002 7.83856 2.2002 14.7955C2.2002 18.6304 3.89342 22.058 6.60258 24.3656C6.63645 24.3996 6.67031 24.3996 6.73804 24.3996C6.7719 24.3996 6.80577 24.3656 6.83963 24.2978L7.3476 22.6688C7.38146 22.6009 7.44919 22.567 7.51692 22.567C14.2221 24.0262 17.1006 20.3951 16.6265 18.1213C16.2201 16.1869 13.0707 14.4901 8.46513 17.1032C8.43127 17.1371 8.3974 17.1371 8.36354 17.1032C8.36354 17.1032 8.32967 17.1032 8.32967 17.0693C8.29581 17.0353 8.26194 17.0014 8.26194 16.9335L9.81968 8.95846C9.81968 8.92453 9.85357 8.89059 9.88746 8.85666C9.92128 8.82272 9.989 8.85666 10.0229 8.85666C10.4631 9.12815 11.7838 9.97658 13.2061 10.825C13.24 10.8589 13.2739 10.8928 13.2739 10.9607C13.24 11.3001 13.0368 12.5557 12.9691 13.0987C12.9691 13.1326 12.9691 13.2006 13.003 13.2344C13.0368 13.2684 13.0707 13.2684 13.1384 13.2684C20.8595 11.1983 22.485 16.0512 22.2818 18.3589C21.8077 23.619 16.0169 26.4018 10.8695 26.4697C10.8018 26.4697 10.7341 26.5036 10.7341 26.5715C10.7341 26.6394 10.7679 26.7072 10.8356 26.7072C12.0887 27.1145 13.4094 27.352 14.7639 27.352C21.7061 27.352 27.3276 21.7186 27.3276 14.7616C27.3276 11.4358 25.9731 8.34761 23.8396 6.1078Z" fill="#E61801"/>
<path d="M11.5146 6.4476C15.68 9.60369 21.7756 8.00868 23.8075 3.08789C20.0485 4.88652 15.8832 6.04037 11.5146 6.4476Z" fill="#78B617"/>
<path d="M11.5146 6.44781C15.8832 6.07451 20.0146 4.92067 23.8075 3.0881C19.5744 2.61299 15.172 3.66502 11.5146 6.44781Z" fill="#28A62A"/>
<path fill-rule="evenodd" clip-rule="evenodd" d="M55.6731 7.50041C65.5615 7.09317 81.1731 8.92574 81.1731 8.92574C81.3762 8.95967 81.5456 8.85787 81.6133 8.68818L81.7827 8.17914L82.0535 7.33073C82.0814 7.2749 82.0634 7.24203 82.0373 7.19435L82.0373 7.19432C82.0317 7.18405 82.0257 7.17308 82.0197 7.16104L82.0195 7.16083C81.9857 7.12697 81.9518 7.0931 81.8842 7.05924C79.9539 6.78774 65.697 4.95517 55.3345 5.19273C45.5815 5.43028 37.3863 7.36466 35.1851 7.94158C35.0158 7.97552 34.8803 8.11126 34.8464 8.31489L34.6094 9.57053C34.6094 9.63841 34.6094 9.70628 34.6771 9.74021C34.711 9.77415 34.7787 9.80809 34.8464 9.77415C36.6074 9.36691 39.0795 8.95967 42.3305 8.55244L40.1632 20.7017C40.0954 20.9053 40.0954 21.1429 40.5018 21.1429H42.6014C42.7368 21.1429 42.9061 21.1089 42.9739 20.7696L45.0057 9.02755C45.0057 8.99361 45.1412 8.38276 45.8185 8.21307C46.2655 8.16139 46.8782 8.11846 47.4929 8.07539C48.0891 8.03361 48.687 7.99171 49.1372 7.94158L46.8683 20.7017C46.8051 21.1136 46.978 21.1113 47.1391 21.1092L47.1731 21.1089H49.3743C49.5437 21.1089 49.8145 21.075 49.8823 20.6678L52.0157 8.41669C52.0157 8.41669 52.1512 7.7719 52.8285 7.63615C53.3704 7.61918 53.8106 7.59373 54.2509 7.56828L54.2509 7.56828C54.6911 7.54283 55.1313 7.51737 55.6731 7.50041ZM86.3881 9.70631L85.5753 9.57057C85.3044 9.53663 85.2367 9.40088 85.2705 9.16332L85.5753 8.11129C85.6344 7.78559 85.8481 7.79573 86.0141 7.80361C86.0384 7.80477 86.0616 7.80587 86.0832 7.80587L86.8283 7.94161C87.1331 8.00949 87.2347 8.07736 87.167 8.38279L86.896 9.40088C86.8291 9.76957 86.6301 9.74102 86.3968 9.70757L86.3881 9.70631ZM71.8942 13.8126C72.6731 12.5569 73.6213 11.5389 75.213 11.5389C76.4998 11.5389 77.2448 12.3533 77.2787 13.9144C77.2787 14.2877 77.2448 14.7289 77.1432 15.204L76.0934 21.1089H74.2309C74.0954 21.1089 73.96 21.0411 73.8584 20.9393C73.7568 20.8035 73.7229 20.6678 73.7568 20.532L74.705 15.3058C74.8743 14.3556 74.7727 13.7108 74.0954 13.7108C73.0795 13.7108 71.8265 15.17 70.9122 20.3284L70.7767 21.1089H68.9819C68.8126 21.1089 68.6433 21.0411 68.5416 20.9053C68.4061 20.7696 68.3723 20.5999 68.4061 20.4302L69.3544 15.3397C69.5237 14.4235 69.4221 13.7447 68.711 13.7447C67.695 13.7447 66.4421 15.17 65.5277 20.3623L65.3922 21.1429H63.5636C63.3942 21.1429 63.2588 21.075 63.1572 20.9732C63.0556 20.8374 63.0217 20.6678 63.0556 20.532L64.6134 11.8103H66.3404C66.5098 11.8103 66.6791 11.8782 66.7807 12.014C66.8823 12.1158 66.95 12.2855 66.9161 12.4551C66.878 12.6333 66.8399 12.8258 66.8018 13.0183L66.8017 13.0188L66.8017 13.0189C66.7383 13.3395 66.6748 13.66 66.6114 13.9144H66.6452C67.2548 12.8284 68.1691 11.5389 69.8962 11.5389C71.3524 11.5389 71.8603 12.523 71.8603 13.8126H71.8942ZM61.87 11.8103H58.3143C55.6729 11.8103 53.9119 12.9302 53.9119 15.0343C53.9119 16.1542 54.6908 16.8669 55.4697 16.9347V16.9687C55.1719 17.0681 54.8418 17.4591 54.4794 17.8884L54.4537 17.9189C53.8103 18.7334 53.3362 19.2763 52.9298 19.2763C52.8621 19.2763 52.7944 19.3442 52.7605 19.4121L52.5573 20.8714C52.5573 20.9392 52.5573 21.0071 52.625 21.041C52.6589 21.075 52.7267 21.1089 52.7944 21.1089H53.5394C54.7585 21.1089 55.1649 20.6338 56.3502 19.1406C57.2645 17.9189 57.6031 17.5456 58.1788 17.5456H58.5852L58.0095 20.8374C58.0095 20.9053 58.0095 20.9732 58.0434 21.0071C58.0772 21.075 58.1449 21.075 58.2127 21.075H60.2784C60.38 21.075 60.4816 21.0071 60.4816 20.9053L62.0733 12.0139C62.0733 11.9461 62.0733 11.8782 62.0394 11.8443C62.0253 11.8443 62.0055 11.8384 61.9822 11.8316C61.9494 11.822 61.9097 11.8103 61.87 11.8103ZM57.637 15.8828H58.9238L59.3641 13.6769H58.1449C57.0275 13.6769 56.4517 14.152 56.4517 15.0683C56.4517 15.6113 56.8242 15.8828 57.637 15.8828ZM83.9157 9.36703L83.0014 9.23128C82.6966 9.16341 82.6289 9.02766 82.7304 8.82404L83.0353 7.73808C83.1368 7.36478 83.4077 7.39872 83.5771 7.43265L84.4237 7.53446C84.7285 7.60233 84.83 7.67021 84.7623 8.00957L84.4576 9.0616C84.3572 9.43034 84.1577 9.40173 83.9244 9.36828L83.9157 9.36703ZM86.5573 13.9823C86.5573 12.4552 85.5075 11.5728 83.7127 11.5728C80.7326 11.5728 78.3621 14.152 78.3621 17.6475C78.3621 19.8533 79.5812 21.3804 81.9179 21.3804C83.7465 21.3804 84.9318 20.6678 85.643 20.023L84.6609 18.3601C84.0852 18.8691 83.2725 19.3442 82.2903 19.3442C81.2745 19.3442 80.868 18.6995 80.8342 17.6475C83.9498 17.3081 86.5573 16.2561 86.5573 13.9823ZM83.3061 13.4734C82.121 13.4734 81.342 14.6951 81.0034 16.0525C82.866 15.8829 84.1528 15.2381 84.1867 14.2539C84.1867 13.7109 83.8819 13.4734 83.3061 13.4734ZM93.9058 11.5389C92.2803 11.5389 91.4337 12.6588 90.6548 13.9823H90.621C90.7225 13.6429 90.7903 13.3375 90.858 12.9982C90.9258 12.6927 90.858 12.3873 90.6548 12.1497C90.4517 11.9122 90.1807 11.7764 89.8759 11.7764H88.6907L86.2186 25.2831H87.607C88.2166 25.2831 88.7584 24.842 88.86 24.2311L89.4018 21.2107C89.6051 21.2786 90.0114 21.3465 90.6887 21.3465C93.9058 21.3465 96.2425 18.7334 96.2425 14.6949C96.3102 12.7945 95.362 11.5389 93.9058 11.5389ZM89.8092 19.4122C89.9449 19.4462 90.2157 19.5139 90.7569 19.5139C92.3824 19.5139 93.7031 17.851 93.7708 15.1361C93.7708 14.2877 93.4999 13.7447 92.9242 13.7447C91.8067 13.7447 90.6215 15.4755 89.9103 18.903L89.8087 19.4121L89.8092 19.4122ZM132.783 11.5389C129.329 11.5389 126.924 14.2877 126.924 18.2922C126.924 20.1927 127.906 21.3465 129.329 21.3465C130.853 21.3465 131.767 20.2266 132.478 18.8691H132.512C132.419 19.2437 132.353 19.7045 132.291 20.1457L132.275 20.2605C132.241 20.4642 132.309 20.7017 132.478 20.8714C132.613 21.0411 132.816 21.1429 133.054 21.1429H134.646C134.679 20.4642 134.781 18.937 135.221 16.3578L136 12.1158C135.593 11.9122 134.476 11.5389 132.783 11.5389ZM130.344 19.2085C131.36 19.2085 132.579 17.5456 133.223 14.0501L133.29 13.5071L133.288 13.5067C133.118 13.4727 132.781 13.4053 132.41 13.4053C130.886 13.4053 129.497 15.2379 129.497 17.851C129.497 18.7673 129.769 19.2085 130.344 19.2085ZM123.672 17.4438C123.402 16.9008 123.13 16.5275 122.86 16.29L126.957 11.8103H124.722C124.349 11.8103 123.977 11.98 123.706 12.2854L120.828 15.6112H120.32L120.862 12.5569C120.895 12.3873 120.862 12.1836 120.726 12.0479C120.625 11.9121 120.421 11.8103 120.252 11.8103H118.457L116.832 21.1429H118.627C119.033 21.1429 119.371 20.8374 119.439 20.4641L120.015 17.308H120.286C120.828 17.308 121.166 17.8849 121.742 19.1406C122.419 20.5998 122.758 21.1429 123.943 21.1429H124.925L125.264 19.2763H125.061C124.621 19.2763 124.248 18.6994 123.672 17.4438ZM110.804 16.3238C111.99 16.3238 113.209 14.7627 113.581 12.3872L113.649 11.7763H116.121L115.308 16.3238C114.868 18.903 114.699 20.4301 114.665 21.1089H112.261C112.396 19.7854 112.769 17.6813 113.039 16.256H113.006C112.329 17.4437 111.245 18.5297 109.585 18.5297C108.264 18.5297 107.519 17.6813 107.519 16.1202C107.519 15.7809 107.554 15.3736 107.621 14.9664L108.197 11.8103H109.45C109.755 11.8103 110.026 11.946 110.229 12.1836C110.432 12.4211 110.499 12.7265 110.466 13.032L110.161 14.8645C109.992 15.8827 110.195 16.3238 110.804 16.3238ZM102.474 11.5389C99.4604 11.5389 97.1914 14.2198 97.1914 17.4438C97.1914 19.5818 98.5122 21.3465 100.917 21.3465C103.998 21.3465 106.132 18.8013 106.132 15.4415C106.166 13.2357 104.811 11.5389 102.474 11.5389ZM99.7307 17.41C99.7307 18.6317 100.205 19.4462 101.153 19.4462C102.812 19.4462 103.693 17.1725 103.693 15.4756C103.693 14.186 103.219 13.4734 102.271 13.4734C100.713 13.4734 99.7307 15.6792 99.7307 17.41Z" fill="#E61801"/>
</svg>
