<svg width="49" height="51" viewBox="0 0 49 51" fill="none" xmlns="http://www.w3.org/2000/svg">
<g filter="url(#filter0_d)">
<circle cx="24" cy="24" r="24" fill="#D6BDFF"/>
</g>
<path d="M24.1997 19.5679C21.2643 19.5679 18.832 21.9582 18.832 24.9356C18.832 27.913 21.2223 30.3033 24.1997 30.3033C27.1772 30.3033 29.5675 27.8711 29.5675 24.9356C29.5675 22.0001 27.1352 19.5679 24.1997 19.5679ZM24.1997 28.3743C22.3127 28.3743 20.7611 26.8227 20.7611 24.9356C20.7611 23.0485 22.3127 21.4969 24.1997 21.4969C26.0868 21.4969 27.6384 23.0485 27.6384 24.9356C27.6384 26.8227 26.0868 28.3743 24.1997 28.3743Z" fill="#2D1B58"/>
<path d="M29.7772 20.6583C30.4488 20.6583 30.9933 20.1138 30.9933 19.4422C30.9933 18.7706 30.4488 18.2261 29.7772 18.2261C29.1055 18.2261 28.561 18.7706 28.561 19.4422C28.561 20.1138 29.1055 20.6583 29.7772 20.6583Z" fill="#2D1B58"/>
<path d="M32.9223 16.297C31.832 15.1647 30.2804 14.5776 28.5191 14.5776H19.8804C16.2321 14.5776 13.7998 17.0099 13.7998 20.6583V29.255C13.7998 31.0582 14.3869 32.6098 15.5611 33.7421C16.6933 34.8324 18.203 35.3775 19.9224 35.3775H28.4772C30.2804 35.3775 31.79 34.7904 32.8804 33.7421C34.0126 32.6517 34.5997 31.1001 34.5997 29.2969V20.6583C34.5997 18.897 34.0126 17.3873 32.9223 16.297ZM32.7545 29.2969C32.7545 30.5969 32.2933 31.6453 31.5384 32.3582C30.7836 33.0711 29.7352 33.4485 28.4772 33.4485H19.9224C18.6643 33.4485 17.6159 33.0711 16.8611 32.3582C16.1062 31.6034 15.7288 30.555 15.7288 29.255V20.6583C15.7288 19.4002 16.1062 18.3518 16.8611 17.597C17.574 16.8841 18.6643 16.5067 19.9224 16.5067H28.561C29.8191 16.5067 30.8675 16.8841 31.6223 17.6389C32.3352 18.3937 32.7545 19.4421 32.7545 20.6583V29.2969Z" fill="#2D1B58"/>
<defs>
<filter id="filter0_d" x="0" y="0" width="49" height="51" filterUnits="userSpaceOnUse" color-interpolation-filters="sRGB">
<feFlood flood-opacity="0" result="BackgroundImageFix"/>
<feColorMatrix in="SourceAlpha" type="matrix" values="0 0 0 0 0 0 0 0 0 0 0 0 0 0 0 0 0 0 127 0"/>
<feOffset dx="1" dy="3"/>
<feColorMatrix type="matrix" values="0 0 0 0 0 0 0 0 0 0 0 0 0 0 0 0 0 0 0.25 0"/>
<feBlend mode="normal" in2="BackgroundImageFix" result="effect1_dropShadow"/>
<feBlend mode="normal" in="SourceGraphic" in2="effect1_dropShadow" result="shape"/>
</filter>
</defs>
</svg>
