<svg width="68" height="88" viewBox="0 0 68 88" fill="none" xmlns="http://www.w3.org/2000/svg">
<g filter="url(#filter0_d)">
<path d="M53.5408 81.8177C53.6349 81.8177 53.7101 81.8177 53.8042 81.7567C54.3312 81.6956 54.8582 82.0618 55.3852 82.1839C55.6675 82.2449 55.9498 82.1839 56.2321 82.2449C56.552 82.306 56.8908 82.2449 57.2108 82.2449C58.4529 82.1839 59.6951 81.6956 60.862 80.4139C62.01 79.1322 63.064 76.9961 63.8544 73.9444C64.1367 72.8458 64.3814 71.6252 64.6073 70.4045C65.8118 63.2636 66 54.8411 66 46.7237C65.9812 37.935 65.7741 29.1462 65.3789 20.4795C65.1907 16.3903 64.9272 12.179 64.1556 8.94428C63.1393 4.79404 61.4642 3.14615 59.8645 2.23065C54.5194 -0.943064 49.0426 1.37619 43.6035 1.92549C30.5608 3.20718 17.2358 -5.27641 4.66364 5.70953C2.19814 7.84569 0.974804 11.6297 0.560751 19.8692C-0.135612 33.1133 -0.173253 46.7237 0.391365 59.9679C0.974804 73.151 2.93215 79.1933 6.94094 81.5735C10.7427 83.8318 14.6009 84.9914 18.4591 84.9914C20.3412 84.9914 22.2233 84.4421 24.1053 84.198C25.7051 84.0149 27.286 84.4421 28.8858 84.8693C30.3726 85.2355 31.8594 84.7473 33.3462 84.4421C37.8444 83.5266 42.2672 82.367 46.7653 83.2214C48.5721 83.5876 50.4354 83.5876 52.2045 82.428C52.6374 82.1229 53.0891 81.8787 53.5408 81.8177Z" fill="#FBFBFD"/>
</g>
<defs>
<filter id="filter0_d" x="0" y="0" width="68" height="88" filterUnits="userSpaceOnUse" color-interpolation-filters="sRGB">
<feFlood flood-opacity="0" result="BackgroundImageFix"/>
<feColorMatrix in="SourceAlpha" type="matrix" values="0 0 0 0 0 0 0 0 0 0 0 0 0 0 0 0 0 0 127 0"/>
<feOffset dx="2" dy="3"/>
<feColorMatrix type="matrix" values="0 0 0 0 0.293176 0 0 0 0 0.203437 0 0 0 0 0.525 0 0 0 1 0"/>
<feBlend mode="normal" in2="BackgroundImageFix" result="effect1_dropShadow"/>
<feBlend mode="normal" in="SourceGraphic" in2="effect1_dropShadow" result="shape"/>
</filter>
</defs>
</svg>
