<svg width="66" height="85" viewBox="0 0 66 85" fill="none" xmlns="http://www.w3.org/2000/svg">
<path d="M64.38 20.5251C64.7745 29.177 64.9812 37.9513 65 46.7258C65 54.8392 64.8104 63.1827 63.6225 70.2303C63.3984 71.4414 63.1592 72.6318 62.8863 73.6938C62.1167 76.6651 61.1176 78.6282 60.1199 79.7436C59.137 80.8219 58.1501 81.193 57.1823 81.2451C57.05 81.2463 56.8924 81.256 56.7801 81.2628C56.7372 81.2655 56.7009 81.2677 56.6752 81.2689C56.5397 81.2752 56.4691 81.2712 56.4258 81.2638C56.1841 81.2138 55.957 81.2142 55.8299 81.2144L55.8086 81.2144C55.6627 81.2144 55.6222 81.2113 55.6012 81.2074C55.491 81.181 55.4 81.1444 55.2561 81.0866C55.1745 81.0538 55.0758 81.0142 54.947 80.9657C54.6619 80.8584 54.2058 80.7035 53.6892 80.7633L53.4566 80.7902L53.3986 80.8278C52.7152 80.9223 52.1114 81.2717 51.6432 81.6002C50.1869 82.5489 48.6347 82.58 46.964 82.2414L46.964 82.2413L46.952 82.239C42.7538 81.4415 38.6174 82.3131 34.6665 83.1456C34.1568 83.253 33.6501 83.3597 33.1468 83.4622L33.1452 83.4625C32.8367 83.5258 32.5552 83.59 32.2862 83.6512C31.8327 83.7545 31.4148 83.8497 30.9639 83.9191C30.2922 84.0225 29.6971 84.0376 29.1338 83.9005L29.0294 83.8726C27.4972 83.463 25.769 83.001 23.9916 83.2045L23.9841 83.2053L23.9767 83.2063C23.2745 83.2974 22.5584 83.4317 21.8759 83.5598C21.6136 83.609 21.3563 83.6572 21.1066 83.7018C20.1795 83.8671 19.3091 83.9914 18.4591 83.9914C14.809 83.9914 11.1252 82.8959 7.45163 80.7138L7.45148 80.7137C5.73614 79.6952 4.35855 77.8464 3.33742 74.5277C2.31201 71.195 1.68104 66.4904 1.39042 59.9244C0.827129 46.7107 0.864766 33.1324 1.55937 19.9217L1.55949 19.9194C1.97413 11.6683 3.20406 8.29728 5.31847 6.46531L5.31847 6.46532L5.32165 6.46255C11.3233 1.2181 17.4806 0.600101 23.8676 1.1744C26.0036 1.36647 28.1207 1.68627 30.2735 2.01147C31.3871 2.17969 32.5103 2.34936 33.6507 2.50354C36.9531 2.95005 40.3233 3.25264 43.7013 2.9207L43.704 2.92043C45.0692 2.78255 46.431 2.53738 47.748 2.30027L47.8644 2.27932C49.2318 2.03324 50.5522 1.79899 51.8615 1.67768C54.4599 1.43693 56.9285 1.65038 59.3539 3.0905L59.3608 3.0946L59.3678 3.09858C60.6978 3.85971 62.2232 5.2599 63.1836 9.17934M64.38 20.5251L65.3789 20.4795L64.38 20.5255C64.38 20.5254 64.38 20.5252 64.38 20.5251ZM64.38 20.5251C64.1912 16.4236 63.9293 12.3073 63.1836 9.17934M63.1836 9.17934C63.1838 9.18027 63.184 9.1812 63.1843 9.18213L64.1554 8.94432L63.1829 9.17632C63.1831 9.17733 63.1833 9.17833 63.1836 9.17934Z" stroke="#FBFBFD" stroke-width="2"/>
</svg>
