<svg width="49" height="51" viewBox="0 0 49 51" fill="none" xmlns="http://www.w3.org/2000/svg">
<g filter="url(#filter0_d)">
<circle cx="24" cy="24" r="24" fill="#D6BDFF"/>
</g>
<path d="M23.502 24C24.4909 24 25.4576 23.7068 26.2798 23.1573C27.102 22.6079 27.7429 21.827 28.1214 20.9134C28.4998 19.9998 28.5988 18.9945 28.4059 18.0246C28.213 17.0546 27.7367 16.1637 27.0375 15.4645C26.3382 14.7652 25.4473 14.289 24.4774 14.0961C23.5075 13.9031 22.5022 14.0022 21.5885 14.3806C20.6749 14.759 19.894 15.3999 19.3446 16.2222C18.7952 17.0444 18.502 18.0111 18.502 19C18.502 20.3261 19.0287 21.5979 19.9664 22.5355C20.9041 23.4732 22.1759 24 23.502 24ZM23.502 17C23.8975 17 24.2842 17.1173 24.6131 17.3371C24.942 17.5568 25.1983 17.8692 25.3497 18.2346C25.5011 18.6001 25.5407 19.0022 25.4635 19.3902C25.3864 19.7781 25.1959 20.1345 24.9162 20.4142C24.6365 20.6939 24.2801 20.8844 23.8921 20.9616C23.5042 21.0387 23.102 20.9991 22.7366 20.8478C22.3711 20.6964 22.0588 20.44 21.839 20.1111C21.6193 19.7822 21.502 19.3956 21.502 19C21.5025 18.4698 21.7135 17.9614 22.0884 17.5864C22.4633 17.2115 22.9717 17.0006 23.502 17Z" fill="#2D1B58"/>
<path d="M25.3308 28.049C26.4465 27.8358 27.5138 27.4209 28.4806 26.8247C28.6371 26.7275 28.773 26.6004 28.8804 26.4507C28.9877 26.3009 29.0644 26.1315 29.1062 25.952C29.1479 25.7725 29.1538 25.5866 29.1235 25.4048C29.0931 25.2231 29.0273 25.0491 28.9296 24.8929C28.8319 24.7366 28.7043 24.6012 28.5542 24.4944C28.4041 24.3876 28.2343 24.3114 28.0547 24.2703C27.8751 24.2293 27.6891 24.224 27.5075 24.255C27.3258 24.2859 27.1521 24.3524 26.9962 24.4507C25.9615 25.0813 24.7753 25.4202 23.5636 25.4315C22.3519 25.4428 21.1597 25.126 20.1134 24.5147C19.7951 24.3264 19.4152 24.2716 19.0566 24.3624C18.6981 24.4532 18.3901 24.6821 18.1997 24.9992C18.0094 25.3163 17.9522 25.6959 18.0407 26.055C18.1291 26.4141 18.3561 26.7236 18.672 26.916C19.5995 27.4638 20.6147 27.8473 21.6728 28.0494L18.5118 31.2104C18.3814 31.3404 18.2779 31.4948 18.2073 31.6647C18.1366 31.8347 18.1002 32.017 18.1001 32.2011C18.0999 32.3852 18.1361 32.5675 18.2065 32.7376C18.2769 32.9077 18.3802 33.0622 18.5104 33.1923C18.6406 33.3225 18.7952 33.4257 18.9653 33.496C19.1354 33.5663 19.3177 33.6024 19.5018 33.6022C19.6859 33.6019 19.8682 33.5654 20.0381 33.4947C20.2081 33.4239 20.3624 33.3204 20.4923 33.1899L23.502 30.1801L26.5118 33.1899C26.6417 33.3204 26.796 33.4239 26.966 33.4947C27.1359 33.5654 27.3182 33.6019 27.5023 33.6022C27.6864 33.6024 27.8687 33.5663 28.0388 33.496C28.2089 33.4257 28.3635 33.3225 28.4937 33.1923C28.6239 33.0622 28.7272 32.9077 28.7976 32.7376C28.868 32.5675 28.9042 32.3852 28.904 32.2011C28.9039 32.017 28.8675 31.8347 28.7968 31.6648C28.7262 31.4948 28.6227 31.3404 28.4923 31.2104L25.3308 28.049Z" fill="#2D1B58"/>
<defs>
<filter id="filter0_d" x="0" y="0" width="49" height="51" filterUnits="userSpaceOnUse" color-interpolation-filters="sRGB">
<feFlood flood-opacity="0" result="BackgroundImageFix"/>
<feColorMatrix in="SourceAlpha" type="matrix" values="0 0 0 0 0 0 0 0 0 0 0 0 0 0 0 0 0 0 127 0"/>
<feOffset dx="1" dy="3"/>
<feColorMatrix type="matrix" values="0 0 0 0 0 0 0 0 0 0 0 0 0 0 0 0 0 0 0.25 0"/>
<feBlend mode="normal" in2="BackgroundImageFix" result="effect1_dropShadow"/>
<feBlend mode="normal" in="SourceGraphic" in2="effect1_dropShadow" result="shape"/>
</filter>
</defs>
</svg>
