<svg width="145" height="29" viewBox="0 0 145 29" fill="none" xmlns="http://www.w3.org/2000/svg">
<path d="M114.849 19.4835H109.115V21.076H111.157V25.8785H112.82V21.076H114.849V19.4835Z" fill="#5FAF2D"/>
<path d="M35.5947 22.6811C35.5947 20.7775 37.0438 19.3094 39.0096 19.3094C40.2823 19.3094 41.3786 19.9688 41.9078 20.9641L40.4713 21.7977C40.2067 21.2752 39.6522 20.9393 38.997 20.9393C38.0015 20.9393 37.2581 21.6733 37.2581 22.6935C37.2581 23.7013 38.0015 24.4353 38.997 24.4353C39.6648 24.4353 40.2319 24.1119 40.4839 23.5893L41.933 24.4105C41.3786 25.4058 40.2823 26.0652 39.0096 26.0652C37.0438 26.0528 35.5947 24.5846 35.5947 22.6811Z" fill="#5FAF2D"/>
<path d="M48.8764 19.4836L46.52 25.8786C45.8522 27.72 44.6551 28.5287 43.1051 28.4291V26.8988C43.9872 26.9113 44.4535 26.6002 44.7559 25.804L42.1475 19.4961H43.9242L45.6631 23.7884L47.0997 19.4961H48.8764V19.4836Z" fill="#5FAF2D"/>
<path d="M55.5787 25.8785H53.9028V21.0263H51.3322V25.8785H49.6562V19.4835H55.5787V25.8785Z" fill="#5FAF2D"/>
<path d="M60.0768 24.56C60.7195 24.56 61.2361 24.2863 61.526 23.9255L62.8743 24.6969C62.2694 25.5678 61.2991 26.0654 60.0516 26.0654C57.8717 26.0654 56.5107 24.5973 56.5107 22.6938C56.5107 20.7902 57.8969 19.3221 59.9256 19.3221C61.841 19.3221 63.2019 20.8151 63.2019 22.6938C63.2019 22.9426 63.1767 23.1541 63.1389 23.3656H58.2623C58.4891 24.1992 59.1948 24.56 60.0768 24.56ZM61.526 22.0841C61.3243 21.1635 60.6187 20.7902 59.9256 20.7902C59.0309 20.7902 58.4261 21.263 58.2245 22.0841H61.526Z" fill="#5FAF2D"/>
<path d="M71.0264 22.6812C71.0264 24.5847 69.6024 26.0528 67.8635 26.0528C66.9184 26.0528 66.238 25.7045 65.7717 25.1197V28.4292H64.1084V19.4837H65.7717V20.2426C66.238 19.6579 66.931 19.3095 67.8635 19.3095C69.6024 19.3095 71.0264 20.7776 71.0264 22.6812ZM69.363 22.6812C69.363 21.6112 68.5944 20.8771 67.5611 20.8771C66.5404 20.8771 65.7717 21.6112 65.7717 22.6812C65.7717 23.7512 66.5404 24.4852 67.5611 24.4852C68.5944 24.4852 69.363 23.7512 69.363 22.6812Z" fill="#5FAF2D"/>
<path d="M78.6743 25.8785H77.0613V22.146L75.4106 24.6965H75.209L73.5456 22.1211V25.8785H71.9453V19.4835H73.5834L75.3098 22.1709L77.0361 19.4835H78.6743V25.8785Z" fill="#5FAF2D"/>
<path d="M86.537 19.4837V25.8787H84.8611V25.1197C84.3948 25.692 83.7018 26.0528 82.7567 26.0528C81.0304 26.0528 79.6064 24.5847 79.6064 22.6812C79.6064 20.7776 81.0304 19.3095 82.7567 19.3095C83.7018 19.3095 84.3948 19.6703 84.8611 20.2426V19.4837H86.537ZM84.8611 22.6812C84.8611 21.6112 84.0924 20.8771 83.0591 20.8771C82.0384 20.8771 81.2698 21.6112 81.2698 22.6812C81.2698 23.7512 82.0384 24.4852 83.0591 24.4852C84.0924 24.4852 84.8611 23.7512 84.8611 22.6812Z" fill="#5FAF2D"/>
<path d="M94.7143 22.6812C94.7143 24.5847 93.2904 26.0528 91.5515 26.0528C90.6064 26.0528 89.926 25.7045 89.4597 25.1197V28.4292H87.7964V19.4837H89.4597V20.2426C89.926 19.6579 90.619 19.3095 91.5515 19.3095C93.2904 19.3095 94.7143 20.7776 94.7143 22.6812ZM93.0384 22.6812C93.0384 21.6112 92.2697 20.8771 91.2365 20.8771C90.2158 20.8771 89.4471 21.6112 89.4471 22.6812C89.4471 23.7512 90.2158 24.4852 91.2365 24.4852C92.2697 24.4852 93.0384 23.7512 93.0384 22.6812Z" fill="#5FAF2D"/>
<path d="M105.474 24.56C106.117 24.56 106.634 24.2863 106.923 23.9255L108.272 24.6969C107.667 25.5678 106.697 26.0654 105.449 26.0654C103.269 26.0654 101.908 24.5973 101.908 22.6938C101.908 20.7902 103.294 19.3221 105.323 19.3221C107.238 19.3221 108.599 20.8151 108.599 22.6938C108.599 22.9426 108.574 23.1541 108.536 23.3656H103.66C103.874 24.1992 104.592 24.56 105.474 24.56ZM106.923 22.0841C106.722 21.1635 106.016 20.7902 105.323 20.7902C104.428 20.7902 103.824 21.263 103.622 22.0841H106.923Z" fill="#5FAF2D"/>
<path d="M99.8672 25.8785H101.808L99.3254 22.6437L101.732 19.4835H99.7412L97.8637 22.0838H97.2966V19.4835H95.6333V25.8785H97.2966V23.3528H97.9897L99.8672 25.8785Z" fill="#5FAF2D"/>
<path d="M125.432 4.26785H117.733V6.39536H120.455V12.8525H122.698V6.39536H125.432V4.26785Z" fill="#005A28"/>
<path d="M51.206 11.0854C52.0753 11.0854 52.7683 10.7246 53.1589 10.2269L54.9733 11.2596C54.1543 12.4291 52.8565 13.1009 51.1808 13.1009C48.2576 13.1009 46.418 11.1227 46.418 8.57219C46.418 6.00923 48.2828 4.04346 51.0044 4.04346C53.5747 4.04346 55.4017 6.05899 55.4017 8.57219C55.4017 8.89567 55.3639 9.19427 55.3135 9.48042H48.7616C49.064 10.6002 50.0216 11.0854 51.206 11.0854ZM53.1589 7.75105C52.8817 6.51933 51.9368 6.02167 51.0044 6.02167C49.8074 6.02167 48.9884 6.65619 48.7238 7.75105H53.1589Z" fill="#005A28"/>
<path d="M66.2752 8.56C66.2752 11.123 64.36 13.0887 62.029 13.0887C60.7564 13.0887 59.8366 12.6284 59.2067 11.8321V16.2738H56.9639V4.26766H59.2067V5.27543C59.8366 4.47917 60.7564 4.01883 62.029 4.01883C64.36 4.03127 66.2752 5.99704 66.2752 8.56ZM64.0324 8.56C64.0324 7.11678 62.9992 6.1339 61.6132 6.1339C60.2398 6.1339 59.2193 7.11678 59.2193 8.56C59.2193 10.0032 60.2398 10.9861 61.6132 10.9861C62.9992 10.9861 64.0324 10.0032 64.0324 8.56Z" fill="#005A28"/>
<path d="M72.2099 11.0854C73.0793 11.0854 73.7723 10.7246 74.1629 10.2269L75.9773 11.2596C75.1583 12.4291 73.8605 13.1009 72.1847 13.1009C69.2615 13.1009 67.4219 11.1227 67.4219 8.57219C67.4219 6.00923 69.2867 4.04346 72.0083 4.04346C74.5787 4.04346 76.4056 6.05899 76.4056 8.57219C76.4056 8.89567 76.3678 9.19427 76.3174 9.48042H69.7655C70.0679 10.6002 71.0255 11.0854 72.2099 11.0854ZM74.1503 7.75105C73.8731 6.51933 72.9281 6.02167 71.9957 6.02167C70.7987 6.02167 69.9797 6.65619 69.7151 7.75105H74.1503Z" fill="#005A28"/>
<path d="M97.0443 8.56C97.0443 11.123 95.1291 13.0887 92.7981 13.0887C91.5255 13.0887 90.6057 12.6284 89.9757 11.8321V16.2738H87.7329V4.26766H89.9757V5.27543C90.6057 4.47917 91.5255 4.01883 92.7981 4.01883C95.1291 4.03127 97.0443 5.99704 97.0443 8.56ZM94.8015 8.56C94.8015 7.11678 93.7683 6.1339 92.3823 6.1339C91.0089 6.1339 89.9883 7.11678 89.9883 8.56C89.9883 10.0032 91.0089 10.9861 92.3823 10.9861C93.7683 10.9861 94.8015 10.0032 94.8015 8.56Z" fill="#005A28"/>
<path d="M102.979 11.086C103.848 11.086 104.541 10.7252 104.932 10.2275L106.746 11.2602C105.927 12.4297 104.629 13.1015 102.954 13.1015C100.031 13.1015 98.1909 11.1233 98.1909 8.5728C98.1909 6.00983 100.056 4.04406 102.777 4.04406C105.348 4.04406 107.175 6.0596 107.175 8.5728C107.175 8.89628 107.137 9.19487 107.086 9.48103H100.535C100.837 10.6008 101.795 11.086 102.979 11.086ZM99.8289 2.20271C99.8289 1.56819 100.371 1.0332 101.013 1.0332C101.656 1.0332 102.172 1.56819 102.172 2.20271C102.172 2.83723 101.656 3.35978 101.013 3.35978C100.371 3.35978 99.8289 2.83723 99.8289 2.20271ZM104.919 7.75165C104.642 6.51994 103.697 6.02227 102.765 6.02227C101.568 6.02227 100.749 6.65679 100.484 7.75165H104.919ZM103.13 2.20271C103.13 1.56819 103.672 1.0332 104.314 1.0332C104.957 1.0332 105.486 1.56819 105.486 2.20271C105.486 2.83723 104.97 3.35978 104.314 3.35978C103.672 3.35978 103.13 2.83723 103.13 2.20271Z" fill="#005A28"/>
<path d="M108.221 8.56017C108.221 5.9972 110.174 4.03143 112.807 4.03143C114.508 4.03143 115.995 4.92723 116.7 6.24603L114.773 7.36578C114.42 6.65661 113.676 6.22115 112.794 6.22115C111.459 6.22115 110.463 7.20403 110.463 8.57261C110.463 9.92874 111.459 10.9116 112.794 10.9116C113.702 10.9116 114.445 10.4762 114.798 9.77944L116.751 10.8743C116.007 12.218 114.521 13.1013 112.82 13.1013C110.161 13.0889 108.221 11.1231 108.221 8.56017Z" fill="#005A28"/>
<path d="M126.163 8.56017C126.163 5.9972 128.192 4.03143 130.749 4.03143C133.307 4.03143 135.361 6.00964 135.361 8.56017C135.361 11.1231 133.307 13.0889 130.749 13.0889C128.204 13.0889 126.163 11.1231 126.163 8.56017ZM133.118 8.56017C133.118 7.16671 132.098 6.19627 130.749 6.19627C129.426 6.19627 128.406 7.17915 128.406 8.56017C128.406 9.95362 129.426 10.9365 130.749 10.9365C132.098 10.9365 133.118 9.95362 133.118 8.56017Z" fill="#005A28"/>
<path d="M83.6634 12.8525H86.2716L82.9326 8.51043L86.1582 4.26785H83.487L80.9796 7.75149H80.211V4.26785H77.9683V12.8525H80.211V9.46843H81.1434L83.6634 12.8525Z" fill="#005A28"/>
<path d="M142.215 4.26785L139.708 7.75149H138.939V4.26785H136.696V12.8525H138.939V9.46843H139.884L142.391 12.8525H145L141.673 8.51043L144.899 4.26785H142.215Z" fill="#005A28"/>
<path d="M44.9311 12.8529H42.5372V3.26046H38.2406V12.8529H35.834V1.03342H44.9311V12.8529Z" fill="#005A28"/>
<path d="M18.4588 9.11967L14.6284 12.9019L10.798 9.11967C8.68125 7.02949 8.68125 3.64538 10.798 1.56764C12.9148 -0.522546 16.342 -0.522546 18.4588 1.56764C20.5756 3.65782 20.5756 7.04193 18.4588 9.11967Z" fill="#5FAF2D"/>
<path d="M10.7982 19.745L14.6286 15.9627L18.459 19.745C20.5758 21.8352 20.5758 25.2193 18.459 27.3095C16.3422 29.3996 12.915 29.3996 10.8108 27.3095C8.69406 25.2193 8.69406 21.8352 10.7982 19.745Z" fill="#005A28"/>
<path d="M20.0086 18.2146L16.1782 14.4323L20.0086 10.6501C22.1254 8.55991 25.5526 8.55991 27.6694 10.6501C29.7861 12.7403 29.7861 16.1244 27.6694 18.2146C25.5526 20.3048 22.1254 20.3048 20.0086 18.2146Z" fill="#1E8737"/>
<path d="M9.24835 10.6498L13.0787 14.432L9.24835 18.2142C7.13156 20.3044 3.70438 20.3044 1.58759 18.2142C-0.529197 16.1241 -0.529197 12.74 1.58759 10.6498C3.71698 8.57203 7.14416 8.57203 9.24835 10.6498Z" fill="#AAE641"/>
</svg>
