<svg width="30" height="28" viewBox="0 0 30 28" fill="none" xmlns="http://www.w3.org/2000/svg">
<g filter="url(#filter0_d)">
<path d="M25.8797 10.0765C25.8797 9.96721 25.8797 9.83607 25.8556 9.70492C25.8315 9.57377 25.8315 9.42076 25.8074 9.26776C25.7834 9.11475 25.7593 8.93989 25.7352 8.74317C25.6871 8.56831 25.663 8.37158 25.6149 8.15301C25.5427 7.7377 25.3983 7.30055 25.2538 6.79781C25.0613 6.31694 24.8687 5.79235 24.5799 5.26776C24.0022 4.19672 23.1597 3.03825 21.884 2.0765C21.7396 1.94536 21.547 1.83607 21.3786 1.72678C21.2101 1.61749 21.0416 1.5082 20.849 1.39891C20.6565 1.31148 20.4639 1.20219 20.2713 1.11475C20.0788 1.02732 19.8862 0.918033 19.6696 0.852459C19.2604 0.699454 18.8271 0.52459 18.3698 0.437158C18.1532 0.371585 17.9125 0.306011 17.6958 0.262295C17.4551 0.218579 17.2144 0.196721 16.9737 0.153005C16.8534 0.131148 16.733 0.10929 16.6127 0.10929C16.4923 0.10929 16.3961 0.0874317 16.2757 0.0874317C16.035 0.0218579 15.8184 0.0218579 15.5777 0H15.4814H15.4092H15.3611H15.1685L14.8074 0.0218579C14.5667 0.0437158 14.302 0.0218579 14.0613 0.0655738C13.5558 0.131148 13.0503 0.196721 12.5689 0.327869C12.3282 0.393443 12.0635 0.437158 11.8228 0.52459C11.5821 0.612022 11.3414 0.699454 11.1007 0.786885C10.86 0.874317 10.6193 0.983607 10.3786 1.07104C10.1379 1.18033 9.89716 1.26776 9.68053 1.39891C9.46389 1.53005 9.22319 1.6612 9.00656 1.79235L8.83807 1.87978L8.66958 1.98907L8.35667 2.20765C7.92341 2.4918 7.53829 2.84153 7.15317 3.1694C6.96061 3.34426 6.79212 3.54098 6.62363 3.71585C6.52735 3.80328 6.43107 3.89071 6.35886 4L6.11816 4.30601C5.97374 4.50273 5.80525 4.69945 5.66083 4.91803L5.25164 5.55191C5.17943 5.6612 5.13129 5.77049 5.08315 5.87978L4.91466 6.22951L4.74617 6.57924C4.69803 6.68852 4.64989 6.81967 4.60175 6.92896L4.36105 7.62842L4.19256 8.34973C4.16849 8.48087 4.12035 8.59016 4.12035 8.72131L4.07221 9.0929L4.02407 9.46448C4.02407 9.59563 4 9.72678 4 9.83607V10.5574V10.7322V10.776V10.7978V10.8415V10.929L4.04814 11.3005C4.07221 11.7814 4.19256 12.2623 4.28884 12.7432C4.36105 12.9836 4.43326 13.2022 4.50547 13.4426C4.57768 13.6831 4.67396 13.9016 4.79431 14.1202C4.98687 14.5792 5.25164 14.9945 5.51641 15.388C6.09409 16.1967 6.81619 16.8743 7.6105 17.4863C8.40481 18.0984 9.2954 18.5355 10.2101 18.929C10.4508 19.0164 10.6674 19.1038 10.9081 19.1913C11.1488 19.2787 11.3895 19.3443 11.6302 19.4098L11.9912 19.5191C12.1116 19.541 12.2319 19.5628 12.3523 19.6066C12.593 19.6503 12.8337 19.7158 13.0744 19.7596C13.3151 19.8033 13.5558 19.8251 13.7965 19.8689C14.0372 19.8907 14.2779 19.9344 14.5186 19.9563C14.7593 19.9781 14.9759 19.9781 15.1926 20H15.3611H15.3851H15.4333H15.4814H15.5777H15.9387C17.7921 19.9781 19.5974 19.6284 21.0656 18.9071C21.2582 18.8197 21.4267 18.7322 21.5952 18.6448C21.7637 18.5574 21.9322 18.4481 22.1007 18.3388C22.2691 18.2295 22.4376 18.1421 22.5821 18.0328C22.7265 17.9235 22.8709 17.7924 23.0153 17.6831C23.0875 17.6175 23.1597 17.5738 23.2319 17.5082C23.3042 17.4426 23.3523 17.3771 23.4245 17.3333C23.5449 17.2022 23.6652 17.0929 23.7856 16.9617C23.9059 16.8525 24.0022 16.7213 24.0985 16.5902C24.1947 16.459 24.291 16.3279 24.3873 16.2186C24.5799 15.9781 24.7002 15.694 24.8687 15.4536C25.0131 15.2131 25.1094 14.9508 25.2298 14.7104C25.2538 14.6448 25.2779 14.6011 25.302 14.5355C25.326 14.4699 25.3501 14.4262 25.3501 14.3607C25.3982 14.2514 25.4223 14.1202 25.4705 14.0109C25.5186 13.9016 25.5427 13.7923 25.5908 13.6831C25.6149 13.5738 25.6389 13.4645 25.663 13.377C25.7112 13.1803 25.7593 12.9836 25.8074 12.7869C25.8315 12.612 25.8556 12.4372 25.8797 12.2623C25.9037 12.1093 25.9278 11.9563 25.9519 11.8251C25.9519 11.694 25.9519 11.5628 25.9759 11.4536C26 11.0164 26 10.776 26 10.776C25.9037 10.7541 25.9037 10.5137 25.8797 10.0765Z" fill="url(#paint0_linear)"/>
</g>
<path d="M10 10H19.5" stroke="#2D1B58" stroke-width="3" stroke-linecap="round"/>
<path d="M14.75 5.25L14.75 14.75" stroke="#2D1B58" stroke-width="3" stroke-linecap="round"/>
<defs>
<filter id="filter0_d" x="0" y="0" width="30" height="28" filterUnits="userSpaceOnUse" color-interpolation-filters="sRGB">
<feFlood flood-opacity="0" result="BackgroundImageFix"/>
<feColorMatrix in="SourceAlpha" type="matrix" values="0 0 0 0 0 0 0 0 0 0 0 0 0 0 0 0 0 0 127 0"/>
<feOffset dy="4"/>
<feGaussianBlur stdDeviation="2"/>
<feColorMatrix type="matrix" values="0 0 0 0 0.25098 0 0 0 0 0.219608 0 0 0 0 0.321569 0 0 0 0.67 0"/>
<feBlend mode="normal" in2="BackgroundImageFix" result="effect1_dropShadow"/>
<feBlend mode="normal" in="SourceGraphic" in2="effect1_dropShadow" result="shape"/>
</filter>
<linearGradient id="paint0_linear" x1="4.02955" y1="9.99377" x2="26.0225" y2="9.99377" gradientUnits="userSpaceOnUse">
<stop stop-color="#FBFBFD"/>
<stop offset="1" stop-color="#EEEBF4"/>
</linearGradient>
</defs>
</svg>
