<svg width="17" height="67" viewBox="0 0 17 67" fill="none" xmlns="http://www.w3.org/2000/svg">
<path d="M7.25333 11.0301V25.0412C7.25333 27.4261 7.58074 29.1899 8.23555 30.3326C9.04148 31.6741 10.2504 32.7175 11.8622 33.4628C10.2504 34.2081 9.04148 35.2514 8.23555 36.5929C7.58074 37.7357 7.25333 39.4995 7.25333 41.8844V55.97C7.25333 58.5039 6.77482 60.2181 5.81778 61.1124C4.86074 62.0067 3.29926 62.4539 1.13334 62.4539H0V67H2.04C5.21333 67 7.55556 66.5032 9.06667 65.5095C11.4844 63.9196 12.6933 61.0379 12.6933 56.8643V42.257C12.6933 40.3193 13.0207 38.8039 13.6756 37.7108C14.4815 36.419 15.5896 35.7234 17 35.6241V31.3015C15.5896 31.2021 14.4815 30.5065 13.6756 29.2147C13.0207 28.1217 12.6933 26.6063 12.6933 24.6686V10.1358C12.6933 5.96223 11.4844 3.08051 9.06667 1.49059C7.55556 0.496895 5.21333 4.57764e-05 2.04 4.57764e-05H0V4.54621H1.13334C3.29926 4.54621 4.86074 4.99337 5.81778 5.8877C6.77482 6.78203 7.25333 8.49615 7.25333 11.0301Z" fill="white"/>
</svg>
