<svg width="17" height="67" viewBox="0 0 17 67" fill="none" xmlns="http://www.w3.org/2000/svg">
<path d="M9.74667 11.0301V25.0412C9.74667 27.4261 9.41926 29.1899 8.76445 30.3326C7.95852 31.6741 6.74963 32.7175 5.13778 33.4628C6.74963 34.2081 7.95852 35.2514 8.76445 36.5929C9.41926 37.7357 9.74667 39.4995 9.74667 41.8844V55.97C9.74667 58.5039 10.2252 60.2181 11.1822 61.1124C12.1393 62.0067 13.7007 62.4539 15.8667 62.4539H17V67H14.96C11.7867 67 9.44444 66.5032 7.93333 65.5095C5.51555 63.9196 4.30667 61.0379 4.30667 56.8643V42.257C4.30667 40.3193 3.97926 38.8039 3.32444 37.7108C2.51852 36.419 1.41037 35.7234 0 35.6241V31.3015C1.41037 31.2021 2.51852 30.5065 3.32444 29.2147C3.97926 28.1217 4.30667 26.6063 4.30667 24.6686V10.1358C4.30667 5.96223 5.51555 3.08051 7.93333 1.49059C9.44444 0.496895 11.7867 4.57764e-05 14.96 4.57764e-05H17V4.54621H15.8667C13.7007 4.54621 12.1393 4.99337 11.1822 5.8877C10.2252 6.78203 9.74667 8.49615 9.74667 11.0301Z" fill="white"/>
</svg>
