<svg width="26" height="27" viewBox="0 0 26 27" fill="none" xmlns="http://www.w3.org/2000/svg">
<path d="M13.409 25.3461C14.9275 23.0769 22.2668 12.487 16.1929 16.2691C13.6621 17.7819 8.60044 22.0683 9.1066 24.0854C9.1066 25.094 11.6374 27.8675 13.409 25.3461Z" fill="#7D68AB"/>
<path d="M6.82908 17.782C10.8784 16.5213 24.0386 11.9828 15.1808 10.9742C9.86605 10.4699 -3.80034 10.9742 1.00821 17.2777C2.27361 18.7906 5.05751 18.5384 6.82908 17.782Z" fill="#7D68AB"/>
<path d="M23.0263 15.7648C27.3287 13.9998 26.3164 11.7306 24.0387 10.9741C21.7609 9.96557 18.4709 10.4699 20.2424 14.5041C20.7486 15.5126 22.2671 16.0169 23.0263 15.7648Z" fill="#7D68AB"/>
<path d="M9.86622 0.636415C3.79227 5.42707 23.0265 16.0169 18.471 7.19205C16.6994 3.66209 13.1563 -1.88498 9.86622 0.636415Z" fill="#7D68AB"/>
</svg>
