<svg width="26" height="27" viewBox="0 0 26 27" fill="none" xmlns="http://www.w3.org/2000/svg">
<path d="M12.591 25.3461C11.0725 23.0769 3.73317 12.487 9.80712 16.2691C12.3379 17.7819 17.3996 22.0683 16.8934 24.0854C16.8934 25.094 14.3626 27.8675 12.591 25.3461Z" fill="white"/>
<path d="M19.1709 17.782C15.1216 16.5213 1.9614 11.9828 10.8192 10.9742C16.1339 10.4699 29.8003 10.9742 24.9918 17.2777C23.7264 18.7905 20.9425 18.5384 19.1709 17.782Z" fill="white"/>
<path d="M2.97367 15.7648C-1.32872 13.9998 -0.316389 11.7306 1.96134 10.9742C4.23907 9.9656 7.52913 10.4699 5.75756 14.5041C5.2514 15.5127 3.73291 16.017 2.97367 15.7648Z" fill="white"/>
<path d="M16.1338 0.636415C22.2077 5.42707 2.97355 16.0169 7.52901 7.19205C9.30058 3.66209 12.8437 -1.88498 16.1338 0.636415Z" fill="white"/>
</svg>
